<?xml version="1.0" encoding="iso-8859-1"?>
<!-- Generator: Adobe Illustrator 19.0.0, SVG Export Plug-In . SVG Version: 6.00 Build 0)  -->
<svg version="1.1" id="Capa_1" xmlns="http://www.w3.org/2000/svg" xmlns:xlink="http://www.w3.org/1999/xlink" x="0px" y="0px"
	 viewBox="0 0 512 512" style="enable-background:new 0 0 512 512;" xml:space="preserve">
<circle style="fill:#FCBD5E;" cx="256" cy="252.062" r="252.062"/>
<path style="fill:#2AA0DA;" d="M359.975,142.572c0,8.665-0.788,17.329-3.151,25.206c-27.569-23.631-62.228-37.022-100.825-37.022
	c-37.809,0-73.255,14.178-100.825,37.022c-1.575-7.877-3.151-16.542-3.151-25.206c0-60.652,46.474-109.489,103.975-109.489
	C313.502,33.871,359.975,82.708,359.975,142.572z"/>
<path style="fill:#183651;" d="M356.825,175.655c-1.575,0-3.938-0.788-4.726-1.575c-26.782-22.843-60.652-35.446-96.098-35.446
	c-34.658,0-68.529,12.603-96.098,35.446c-2.363,1.575-4.726,2.363-7.877,1.575c-2.363-0.788-4.726-3.151-5.514-5.514
	c-2.363-8.665-3.151-17.329-3.151-26.782c0-64.591,50.412-117.366,111.852-117.366S367.065,78.769,367.065,143.36
	c0,9.452-0.788,18.905-3.151,26.782c-0.788,2.363-2.363,4.726-5.514,5.514C358.4,175.655,357.612,175.655,356.825,175.655z
	 M256,41.748c-52.775,0-96.098,45.686-96.098,101.612c0,3.938,0,7.089,0.788,11.028c27.569-19.692,61.44-30.72,95.311-30.72
	c34.658,0,67.742,11.028,95.311,30.72c0-3.151,0.788-7.089,0.788-11.028C352.098,86.646,308.775,41.748,256,41.748z"/>
<path style="fill:#FFFFFF;" d="M178.018,125.243c7.877-38.597,40.172-68.529,78.769-68.529s70.892,29.145,78.769,67.742
	c-24.418-11.815-51.2-18.117-78.769-18.117C229.218,107.126,201.649,113.428,178.018,125.243z"/>
<g>
	<circle style="fill:#173651;" cx="222.129" cy="90.585" r="12.603"/>
	<circle style="fill:#173651;" cx="289.871" cy="90.585" r="12.603"/>
</g>
<g>
	<path style="fill:#183651;" d="M339.495,86.646c-4.726,0-7.877-3.151-7.877-7.877C331.618,33.083,365.489,0,412.751,0
		c4.726,0,7.877,3.151,7.877,7.877s-3.151,7.877-7.877,7.877c-37.809,0-65.378,26.782-65.378,63.015
		C347.372,82.708,344.222,86.646,339.495,86.646z"/>
	<path style="fill:#183651;" d="M172.505,85.858c-4.726,0-7.877-3.151-7.877-7.877c0-36.234-27.569-62.228-65.378-62.228
		c-4.726,0-7.877-3.151-7.877-7.877S94.523,0,99.249,0c47.262,0,81.132,33.083,81.132,77.982
		C180.382,82.708,177.231,85.858,172.505,85.858z"/>
	<path style="fill:#183651;" d="M467.889,498.609l-22.843-71.68h-66.954c-4.726,0-7.877-3.151-7.877-7.877
		c0-4.726,3.151-7.877,7.877-7.877h73.255c3.151,0,6.302,2.363,7.877,5.514l24.418,77.194c1.575,3.938-0.788,8.665-5.514,10.24
		C474.191,504.911,469.465,502.548,467.889,498.609z"/>
	<path style="fill:#183651;" d="M133.908,195.348H60.652c-3.151,0-6.302-2.363-7.877-5.514L28.357,112.64
		c-1.575-3.938,0.788-8.665,5.514-10.24c3.938-1.575,8.665,0.788,10.24,5.514l22.843,71.68h66.954c4.726,0,7.877,3.151,7.877,7.877
		C141.785,192.197,138.634,195.348,133.908,195.348z"/>
	<path style="fill:#183651;" d="M451.348,195.348h-73.255c-4.726,0-7.877-3.151-7.877-7.877c0-4.726,3.151-7.877,7.877-7.877h67.742
		l22.843-71.68c1.575-3.938,5.514-6.302,10.24-5.514c3.938,1.575,6.302,5.514,5.514,10.24l-24.418,77.194
		C457.649,193.772,454.498,195.348,451.348,195.348z"/>
	<path style="fill:#183651;" d="M33.871,504.123c-3.938-1.575-6.302-5.514-5.514-10.24l24.418-77.194
		c0.788-3.151,3.938-5.514,7.877-5.514h73.255c4.726,0,7.877,3.151,7.877,7.877c0,4.726-3.151,7.877-7.877,7.877H66.166
		l-22.843,71.68C42.535,502.548,37.809,504.911,33.871,504.123z"/>
	<path style="fill:#183651;" d="M500.185,298.535h-82.708c-4.726,0-7.877-3.151-7.877-7.877s3.151-7.877,7.877-7.877h82.708
		c4.726,0,7.877,3.151,7.877,7.877C508.062,294.597,504.911,298.535,500.185,298.535z"/>
	<path style="fill:#183651;" d="M94.523,298.535H11.815c-4.726,0-7.877-3.151-7.877-7.877s3.151-7.877,7.877-7.877h82.708
		c4.726,0,7.877,3.151,7.877,7.877C102.4,294.597,99.249,298.535,94.523,298.535z"/>
</g>
<ellipse style="fill:#E1E6E8;" cx="256" cy="317.44" rx="161.477" ry="186.683"/>
<path style="fill:#183651;" d="M256,512c-93.735,0-169.354-87.434-169.354-194.56S162.265,122.88,256,122.88
	s169.354,87.434,169.354,194.56S349.735,512,256,512z M256,138.634c-85.071,0-153.6,80.345-153.6,178.806
	S170.929,496.246,256,496.246s153.6-80.345,153.6-178.806S341.071,138.634,256,138.634z"/>
<path style="fill:#FFFFFF;" d="M256,472.615c-71.68,0-129.969-69.317-129.969-155.175S184.32,162.265,256,162.265
	s129.969,69.317,129.969,155.175S327.68,472.615,256,472.615z"/>
<path style="fill:#F05F50;" d="M302.474,172.505c-14.178-6.302-29.932-10.24-46.474-10.24c-16.542,0-32.295,3.938-46.474,10.24
	L256,472.615L302.474,172.505z"/>
<g>
	<rect x="170.929" y="265.452" style="fill:#183651;" width="15.754" height="15.754"/>
	<rect x="170.929" y="317.44" style="fill:#183651;" width="15.754" height="15.754"/>
	<rect x="170.929" y="369.428" style="fill:#183651;" width="15.754" height="15.754"/>
	<rect x="325.317" y="265.452" style="fill:#183651;" width="15.754" height="15.754"/>
	<rect x="325.317" y="317.44" style="fill:#183651;" width="15.754" height="15.754"/>
	<rect x="325.317" y="369.428" style="fill:#183651;" width="15.754" height="15.754"/>
</g>
<g>
</g>
<g>
</g>
<g>
</g>
<g>
</g>
<g>
</g>
<g>
</g>
<g>
</g>
<g>
</g>
<g>
</g>
<g>
</g>
<g>
</g>
<g>
</g>
<g>
</g>
<g>
</g>
<g>
</g>
</svg>
